<svg height="128" shape-rendering="crispEdges" viewBox="-4 -4 24.000002 24.000002" width="128" xmlns="http://www.w3.org/2000/svg" xmlns:xlink="http://www.w3.org/1999/xlink"><linearGradient id="a"><stop offset="0" stop-color="#ff4473"/><stop offset="1" stop-color="#0048ff"/></linearGradient><linearGradient gradientUnits="userSpaceOnUse" spreadMethod="pad" x1="8" x2="8" xlink:href="#a" y1="3" y2="24.204697"/><linearGradient id="b" gradientUnits="userSpaceOnUse" spreadMethod="pad" x1="8" x2="7.999989" xlink:href="#a" y1="3" y2="19.999998"/><linearGradient id="c" gradientUnits="userSpaceOnUse" spreadMethod="pad" x1="8" x2="8" xlink:href="#a" y1="7.875" y2="14.999999"/><linearGradient id="d" gradientUnits="userSpaceOnUse" spreadMethod="pad" x1="8.000002" x2="8.000002" xlink:href="#a" y1="2" y2="18.312498"/><linearGradient id="e" gradientUnits="userSpaceOnUse" x1="7.99999464999" x2="7.99999352499" xlink:href="#a" y1="-25.29404419807" y2="41.29402112305"/><path d="m-3.2500136-1.0000124h1.1250005v-1.1250007h1.1250007v-1.1250005h18.0000114v1.1250005h1.125003v1.1250007h1.124999v18.0000114h-1.124999v1.125003h-1.125003v1.124999h-18.0000114v-1.124999h-1.1250007v-1.125003h-1.1250005z" stroke-width=".210937"/><path d="m-2.1250131-1.0000124h1.1250007v-1.1250007h18.0000114v1.1250007h1.125001v18.0000114h-1.125001v1.125001h-18.0000114v-1.125001h-1.1250007z" fill="url(#e)"/><path d="m1.2498744.12493295v10.12512105h-1.12500985v4.50005h1.12500985v1.125016h13.5001276v-1.125016h1.125013v-4.50005h-1.125013v-10.12512105h-2.250017v1.12501285h-1.12501v-1.12501285h-2.2500276v1.12501285h-2.2500248v-1.12501285h-2.2500196v1.12501285h-1.1250102v-1.12501285z" stroke-width="1.12501"/><g fill="url(#b)" transform="matrix(1.1250099 0 0 1.1250134 -1.000147 -1.000082)"><path d="m2 11h12v3h-12z" fill="url(#c)"/><path d="m3 2v8h10v-8h-1v1h-1v-1h-2v1h-2v-1h-2v1h-1v-1zm1 5h3v2h-2v-1h-1zm5 0h3v1h-1v1h-2z" fill="url(#d)"/></g></svg>