<svg height="128" shape-rendering="crispEdges" viewBox="-1 -2 40.314961 20.15748" width="256" xmlns="http://www.w3.org/2000/svg" xmlns:xlink="http://www.w3.org/1999/xlink"><linearGradient id="a"><stop offset="0" stop-color="#ff4473"/><stop offset="1" stop-color="#0048ff"/></linearGradient><linearGradient gradientUnits="userSpaceOnUse" spreadMethod="pad" x1="8" x2="8" xlink:href="#a" y1="3" y2="24.204697"/><linearGradient id="b" gradientUnits="userSpaceOnUse" x1="28.58846931829" x2="28.58846931829" xlink:href="#a" y1="4.30189515114" y2="15.6475510287"/><linearGradient id="c" gradientUnits="userSpaceOnUse" x1="29.21799856777" x2="29.21799856777" xlink:href="#a" y1="8.71409385068" y2="16.92893699409"/><linearGradient id="d" gradientUnits="userSpaceOnUse" spreadMethod="pad" x1="8" x2="7.999989" xlink:href="#a" y1="3" y2="19.999998"/><linearGradient id="e" gradientUnits="userSpaceOnUse" spreadMethod="pad" x1="8.000002" x2="8.000002" xlink:href="#a" y1="2" y2="18.312498"/><linearGradient id="f" gradientUnits="userSpaceOnUse" spreadMethod="pad" x1="8" x2="8" xlink:href="#a" y1="7.875" y2="14.999999"/><path d="m18.527559 10.598425v5.03937h20.15748v-5.03937h-1.889763v-5.0393699h-16.377953v5.0393699z" stroke-width=".07874"/><path d="m1.5302305-.7401575v11.3385835h-1.25902983v5.039367h1.25902983v1.259845h15.1083745v-1.259845h1.259032v-5.039367h-1.259032v-11.3385835h-2.518059v1.25984206h-1.25903v-1.25984206h-2.518069v1.25984206h-2.5180657v-1.25984206h-2.5180606v1.25984206h-1.2590305v-1.25984206z" stroke-width="1.25944"/><g fill="url(#d)" transform="matrix(1.2590303 0 0 1.2598426 -.987831 -2)"><path d="m2 11h12v3h-12z" fill="url(#f)"/><path d="m3 2v8h10v-8h-1v1h-1v-1h-2v1h-2v-1h-2v1h-1v-1zm1 5h3v2h-2v-1h-1zm5 0h3v1h-1v1h-2z" fill="url(#e)"/></g><text fill="#fff" transform="matrix(.078125 0 0 .078125 -1 -2)"/><text fill="#fff" transform="matrix(.078125 0 0 .078125 -1 -2)"/><text stroke-width=".078125" x="20.710377" y="6.392246"><tspan stroke-width=".078125" x="20.710377" y="6.392246"/></text><g stroke-width=".060928"><g fill="url(#b)" transform="scale(1.0006237 .99937667)"><path d="m21.034124 9.9747248v-3.7818826h1.894088v.6355576h.629265v1.2522373h-.629265v-1.2522373h-1.264823v1.2522373h1.264823v.6355577h-1.264823v1.25853z"/><path d="m26.074539 9.9747248h-1.894087v-.629265h.629265v-2.51706h-.629265v-.6355576h1.894087v.6355576h-.635557v2.51706h.635557z"/><path d="m29.220862 9.9747248v-1.25853h.622972v1.25853zm-2.523353 0v-1.25853h.629265v1.25853zm2.523353-1.25853h-.629265v-.6355577h.629265zm-1.894088 0v-.6355577h.629265v.6355577zm1.264823-.6355577h-.635558v-.6292649h.635558zm0-.6292649v-.6229724h.629265v.6229724zm-.635558 0h-.629265v-.6229724h.629265zm1.264823-.6229724v-.6355576h.622972v.6355576zm-1.894088 0h-.629265v-.6355576h.629265z"/><path d="m31.102364 9.3454598h1.894087v.629265h-2.523352v-3.7818826h2.523352v.6355576h-1.894087v.6229724h1.25853v.6292649h-1.25853z"/><path d="m34.248692 9.3454598h1.894087v.629265h-2.523352v-3.7818826h.629265z"/></g><g fill="url(#c)" transform="scale(1.0006237 .99937667)"><path d="m19.774801 14.387975h1.894088v.629265h-2.523353v-3.781883h2.523353v.635558h-1.894088v.622972h1.25853v.629265h-1.25853z"/><path d="m24.815216 15.01724v-1.25853h-.629265v-.635558h.629265v-1.887795h.622973v3.781883zm-2.523352 0v-3.781883h.629265v.635558h.629265v.622972h.635557v.629265h-.635557v-.629265h-.629265v2.523353z"/><path d="m26.696718 14.387975h1.264823v.629265h-1.264823zm1.264823 0v-1.264823h-.635558v-.629265h1.264823v1.894088zm-1.264823 0h-.629265v-2.51706h.629265zm0-3.152618h1.894088v.635558h-1.894088z"/><path d="m31.107869 15.01724h-1.894088v-.629265h.629265v-2.51706h-.629265v-.635558h1.894088v.635558h-.635558v2.51706h.635558z"/><path d="m34.254191 15.01724v-1.25853h-.629265v-.635558h.629265v-1.887795h.622973v3.781883zm-2.523352 0v-3.781883h.629265v.635558h.629265v.622972h.635557v.629265h-.635557v-.629265h-.629265v2.523353z"/><path d="m36.135693 14.387975h1.894087v.629265h-2.523352v-3.781883h2.523352v.635558h-1.894087v.622972h1.25853v.629265h-1.25853z"/></g></g></svg>