<svg height="64" shape-rendering="crispEdges" viewBox="0 0 32 32" width="64" xmlns="http://www.w3.org/2000/svg" xmlns:xlink="http://www.w3.org/1999/xlink"><linearGradient gradientUnits="userSpaceOnUse" spreadMethod="pad" x1="8" x2="8" xlink:href="#a" y1="3" y2="24.204697"/><linearGradient id="a"><stop offset="0" stop-color="#ff4473"/><stop offset="1" stop-color="#0048ff"/></linearGradient><linearGradient id="b" gradientUnits="userSpaceOnUse" spreadMethod="pad" x1="8" x2="7.999989" xlink:href="#a" y1="3" y2="19.999998"/><linearGradient id="c" gradientUnits="userSpaceOnUse" spreadMethod="pad" x1="8" x2="8" xlink:href="#a" y1="7.875" y2="14.999999"/><linearGradient id="d" gradientUnits="userSpaceOnUse" spreadMethod="pad" x1="8.000002" x2="8.000002" xlink:href="#a" y1="2" y2="18.312498"/><path d="m10.000036 12.812502v8.999968h-.9999935v3.999982h.9999935v.999999h11.999927v-.999999h.999994v-3.999982h-.999994v-8.999968h-1.999985v.999996h-.999993v-.999996h-1.999993v.999996h-1.999991v-.999996h-1.999986v.999996h-.999994v-.999996z" stroke-width=".999996"/><g fill="url(#b)" transform="matrix(.99999324 0 0 .99999636 8.000048 11.812505)"><path d="m2 11h12v3h-12z" fill="url(#c)"/><path d="m3 2v8h10v-8h-1v1h-1v-1h-2v1h-2v-1h-2v1h-1v-1zm1 5h3v2h-2v-1h-1zm5 0h3v1h-1v1h-2z" fill="url(#d)"/></g><path d="m7 2.5c-1.0995 0-2 .9005-2 2v23c0 1.0995.9005 2 2 2h18c1.0995 0 2-.9005 2-2v-16.5h-.004a.483.483 0 0 0 -.1425-.3535l-8-8a.5.5 0 0 0 -.3535-.1445v-.002zm0 1h11v6c0 1.0995.9005 2 2 2h6v16c0 .5625-.4375 1-1 1h-18c-.5625 0-1-.4375-1-1v-23c0-.5625.4375-1 1-1z" fill="#fff" fill-opacity=".59" stroke-width=".5"/></svg>