<svg height="16" shape-rendering="crispEdges" viewBox="0 0 16 16" width="16" xmlns="http://www.w3.org/2000/svg" xmlns:xlink="http://www.w3.org/1999/xlink"><linearGradient gradientUnits="userSpaceOnUse" spreadMethod="pad" x1="8" x2="8" xlink:href="#a" y1="3" y2="24.204697"/><linearGradient id="a"><stop offset="0" stop-color="#ff4473"/><stop offset="1" stop-color="#0048ff"/></linearGradient><linearGradient id="b" gradientUnits="userSpaceOnUse" spreadMethod="pad" x1="8" x2="7.999989" xlink:href="#a" y1="3" y2="19.999998"/><linearGradient id="c" gradientUnits="userSpaceOnUse" spreadMethod="pad" x1="8" x2="8" xlink:href="#a" y1="7.875" y2="14.999999"/><linearGradient id="d" gradientUnits="userSpaceOnUse" spreadMethod="pad" x1="8.000002" x2="8.000002" xlink:href="#a" y1="2" y2="18.312498"/><path d="m1.9999931 1.0000413v8.9999677h-.9999931v3.999982h.9999931v.999999h11.9999269v-.999999h.999995v-3.999982h-.999995v-8.9999677h-1.999985v.9999959h-.999993v-.9999959h-1.9999929v.9999959h-1.999991v-.9999959h-1.9999862v.9999959h-.9999935v-.9999959z" stroke-width=".999996"/><g fill="url(#b)" transform="matrix(.99999324 0 0 .99999636 .000006 .000044)"><path d="m2 11h12v3h-12z" fill="url(#c)"/><path d="m3 2v8h10v-8h-1v1h-1v-1h-2v1h-2v-1h-2v1h-1v-1zm1 5h3v2h-2v-1h-1zm5 0h3v1h-1v1h-2z" fill="url(#d)"/></g></svg>